{
    "asset" : {
        "generator" : "Khronos glTF Blender I/O v3.2.40",
        "version" : "2.0"
    },
    "scene" : 0,
    "scenes" : [
        {
            "name" : "Scene",
            "nodes" : [
                0,
                5,
                10,
                15,
                19
            ]
        },
        {
            "name" : "Scene.001",
            "nodes" : [
                20
            ]
        }
    ],
    "nodes" : [
        {
            "mesh" : 0,
            "name" : "Cube.001"
        },
        {
            "mesh" : 1,
            "name" : "Cube.003",
            "translation" : [
                -2.384185791015625e-06,
                29.209259033203125,
                0
            ]
        },
        {
            "mesh" : 2,
            "name" : "Cube.004",
            "translation" : [
                -2.384185791015625e-06,
                3.2611613273620605,
                0
            ]
        },
        {
            "mesh" : 3,
            "name" : "Plane",
            "translation" : [
                -2.8014183044433594e-06,
                26.7529296875,
                -4.318853855133057
            ]
        },
        {
            "children" : [
                1,
                2,
                3
            ],
            "mesh" : 4,
            "name" : "Cube.002",
            "translation" : [
                -0.2840392589569092,
                3.179957866668701,
                6.038997173309326
            ]
        },
        {
            "children" : [
                4
            ],
            "name" : "Mat1",
            "rotation" : [
                0,
                0.19200091063976288,
                0,
                0.9813947677612305
            ],
            "scale" : [
                0.6655875444412231,
                0.6655875444412231,
                0.6655875444412231
            ],
            "translation" : [
                0,
                1.6935436725616455,
                15.020712852478027
            ]
        },
        {
            "mesh" : 1,
            "name" : "Cube.003",
            "translation" : [
                0,
                29.209260940551758,
                0
            ]
        },
        {
            "mesh" : 2,
            "name" : "Cube.004",
            "translation" : [
                0,
                3.2611608505249023,
                0
            ]
        },
        {
            "mesh" : 3,
            "name" : "Plane",
            "translation" : [
                -2.086162567138672e-06,
                26.752927780151367,
                -4.318854331970215
            ]
        },
        {
            "children" : [
                6,
                7,
                8
            ],
            "mesh" : 4,
            "name" : "Cube.002",
            "translation" : [
                -0.28403884172439575,
                3.1799583435058594,
                6.038999080657959
            ]
        },
        {
            "children" : [
                9
            ],
            "name" : "Mat1.001",
            "rotation" : [
                0,
                0.10675540566444397,
                0,
                0.9942853450775146
            ],
            "scale" : [
                0.782852828502655,
                0.782852828502655,
                0.782852828502655
            ],
            "translation" : [
                0,
                4.318742275238037,
                -24.319046020507812
            ]
        },
        {
            "mesh" : 1,
            "name" : "Cube.003",
            "translation" : [
                0,
                29.209259033203125,
                0
            ]
        },
        {
            "mesh" : 2,
            "name" : "Cube.004",
            "translation" : [
                0,
                3.2611618041992188,
                0
            ]
        },
        {
            "mesh" : 3,
            "name" : "Plane",
            "translation" : [
                0,
                26.752927780151367,
                -4.318854331970215
            ]
        },
        {
            "children" : [
                11,
                12,
                13
            ],
            "mesh" : 4,
            "name" : "Cube.002",
            "translation" : [
                -0.2840385437011719,
                3.1799583435058594,
                6.038999557495117
            ]
        },
        {
            "children" : [
                14
            ],
            "name" : "Mat1.002",
            "rotation" : [
                0,
                -0.05177348107099533,
                0,
                0.9986588358879089
            ],
            "translation" : [
                0,
                0,
                -14.4412202835083
            ]
        },
        {
            "mesh" : 1,
            "name" : "Cube.003",
            "translation" : [
                0,
                29.209259033203125,
                0
            ]
        },
        {
            "mesh" : 2,
            "name" : "Cube.004",
            "translation" : [
                0,
                3.2611618041992188,
                0
            ]
        },
        {
            "mesh" : 3,
            "name" : "Plane",
            "translation" : [
                0,
                26.752927780151367,
                -4.318853855133057
            ]
        },
        {
            "children" : [
                16,
                17,
                18
            ],
            "mesh" : 4,
            "name" : "Cube.002",
            "translation" : [
                -0.2840385437011719,
                3.1799583435058594,
                6.038999557495117
            ]
        },
        {
            "mesh" : 5,
            "name" : "Text",
            "translation" : [
                0,
                13.06796646118164,
                -0.11291143298149109
            ]
        }
    ],
    "materials" : [
        {
            "doubleSided" : true,
            "name" : "Wood",
            "pbrMetallicRoughness" : {
                "baseColorFactor" : [
                    0.03987376019358635,
                    0.011786931194365025,
                    0.00506245344877243,
                    1
                ],
                "metallicFactor" : 0,
                "roughnessFactor" : 0.5
            }
        },
        {
            "doubleSided" : true,
            "name" : "Cabi",
            "pbrMetallicRoughness" : {
                "baseColorFactor" : [
                    0.24617834389209747,
                    0.08951053768396378,
                    0.01572713628411293,
                    1
                ],
                "metallicFactor" : 0,
                "roughnessFactor" : 0.5
            }
        },
        {
            "doubleSided" : true,
            "name" : "Material",
            "pbrMetallicRoughness" : {
                "baseColorFactor" : [
                    0.800000011920929,
                    0.800000011920929,
                    0.800000011920929,
                    1
                ],
                "metallicFactor" : 0,
                "roughnessFactor" : 0.5
            }
        }
    ],
    "meshes" : [
        {
            "name" : "Cube.001",
            "primitives" : [
                {
                    "attributes" : {
                        "POSITION" : 0,
                        "NORMAL" : 1,
                        "TEXCOORD_0" : 2
                    },
                    "indices" : 3,
                    "material" : 0
                },
                {
                    "attributes" : {
                        "POSITION" : 4,
                        "NORMAL" : 5,
                        "TEXCOORD_0" : 6
                    },
                    "indices" : 7,
                    "material" : 1
                }
            ]
        },
        {
            "name" : "Cube.003",
            "primitives" : [
                {
                    "attributes" : {
                        "POSITION" : 8,
                        "NORMAL" : 9,
                        "TEXCOORD_0" : 10
                    },
                    "indices" : 11,
                    "material" : 0
                }
            ]
        },
        {
            "name" : "Cube.004",
            "primitives" : [
                {
                    "attributes" : {
                        "POSITION" : 12,
                        "NORMAL" : 13,
                        "TEXCOORD_0" : 14
                    },
                    "indices" : 11,
                    "material" : 0
                }
            ]
        },
        {
            "name" : "Plane",
            "primitives" : [
                {
                    "attributes" : {
                        "POSITION" : 15,
                        "NORMAL" : 16,
                        "TEXCOORD_0" : 17
                    },
                    "indices" : 18,
                    "material" : 2
                }
            ]
        },
        {
            "name" : "Cube.002",
            "primitives" : [
                {
                    "attributes" : {
                        "POSITION" : 19,
                        "NORMAL" : 20,
                        "TEXCOORD_0" : 21
                    },
                    "indices" : 22,
                    "material" : 0
                }
            ]
        },
        {
            "name" : "Text",
            "primitives" : [
                {
                    "attributes" : {
                        "POSITION" : 23,
                        "NORMAL" : 24,
                        "TEXCOORD_0" : 25
                    },
                    "indices" : 26
                }
            ]
        }
    ],
    "accessors" : [
        {
            "bufferView" : 0,
            "componentType" : 5126,
            "count" : 926,
            "max" : [
                6.7718377113342285,
                7.217255592346191,
                26.85894012451172
            ],
            "min" : [
                -6.7718377113342285,
                -8.7462158203125,
                -22.360755920410156
            ],
            "type" : "VEC3"
        },
        {
            "bufferView" : 1,
            "componentType" : 5126,
            "count" : 926,
            "type" : "VEC3"
        },
        {
            "bufferView" : 2,
            "componentType" : 5126,
            "count" : 926,
            "type" : "VEC2"
        },
        {
            "bufferView" : 3,
            "componentType" : 5123,
            "count" : 1440,
            "type" : "SCALAR"
        },
        {
            "bufferView" : 4,
            "componentType" : 5126,
            "count" : 176,
            "max" : [
                6.7718377113342285,
                6.659055709838867,
                25.45972442626953
            ],
            "min" : [
                -6.7718377113342285,
                2.1661229133605957,
                -22.360755920410156
            ],
            "type" : "VEC3"
        },
        {
            "bufferView" : 5,
            "componentType" : 5126,
            "count" : 176,
            "type" : "VEC3"
        },
        {
            "bufferView" : 6,
            "componentType" : 5126,
            "count" : 176,
            "type" : "VEC2"
        },
        {
            "bufferView" : 7,
            "componentType" : 5123,
            "count" : 282,
            "type" : "SCALAR"
        },
        {
            "bufferView" : 8,
            "componentType" : 5126,
            "count" : 24,
            "max" : [
                17.48715591430664,
                0.1535491943359375,
                0.1535499542951584
            ],
            "min" : [
                -17.48715591430664,
                -0.1535511016845703,
                -0.1535499542951584
            ],
            "type" : "VEC3"
        },
        {
            "bufferView" : 9,
            "componentType" : 5126,
            "count" : 24,
            "type" : "VEC3"
        },
        {
            "bufferView" : 10,
            "componentType" : 5126,
            "count" : 24,
            "type" : "VEC2"
        },
        {
            "bufferView" : 11,
            "componentType" : 5123,
            "count" : 36,
            "type" : "SCALAR"
        },
        {
            "bufferView" : 12,
            "componentType" : 5126,
            "count" : 24,
            "max" : [
                17.48715591430664,
                0.1535491943359375,
                0.1535499542951584
            ],
            "min" : [
                -17.48715591430664,
                -0.1535511016845703,
                -0.1535499542951584
            ],
            "type" : "VEC3"
        },
        {
            "bufferView" : 13,
            "componentType" : 5126,
            "count" : 24,
            "type" : "VEC3"
        },
        {
            "bufferView" : 14,
            "componentType" : 5126,
            "count" : 24,
            "type" : "VEC2"
        },
        {
            "bufferView" : 15,
            "componentType" : 5126,
            "count" : 28,
            "max" : [
                17.21401596069336,
                2.426809310913086,
                8.952936172485352
            ],
            "min" : [
                -17.21401596069336,
                -23.455808639526367,
                4.180225372314453
            ],
            "type" : "VEC3"
        },
        {
            "bufferView" : 16,
            "componentType" : 5126,
            "count" : 28,
            "type" : "VEC3"
        },
        {
            "bufferView" : 17,
            "componentType" : 5126,
            "count" : 28,
            "type" : "VEC2"
        },
        {
            "bufferView" : 18,
            "componentType" : 5123,
            "count" : 156,
            "type" : "SCALAR"
        },
        {
            "bufferView" : 19,
            "componentType" : 5126,
            "count" : 62,
            "max" : [
                0.369821697473526,
                35.57411193847656,
                0.369821697473526
            ],
            "min" : [
                -0.369821697473526,
                -1,
                -0.369821697473526
            ],
            "type" : "VEC3"
        },
        {
            "bufferView" : 20,
            "componentType" : 5126,
            "count" : 62,
            "type" : "VEC3"
        },
        {
            "bufferView" : 21,
            "componentType" : 5126,
            "count" : 62,
            "type" : "VEC2"
        },
        {
            "bufferView" : 22,
            "componentType" : 5123,
            "count" : 108,
            "type" : "SCALAR"
        },
        {
            "bufferView" : 23,
            "componentType" : 5126,
            "count" : 2199,
            "max" : [
                2.156008243560791,
                0,
                0.8010759353637695
            ],
            "min" : [
                -2.135284900665283,
                0,
                -0.5569620132446289
            ],
            "type" : "VEC3"
        },
        {
            "bufferView" : 24,
            "componentType" : 5126,
            "count" : 2199,
            "type" : "VEC3"
        },
        {
            "bufferView" : 25,
            "componentType" : 5126,
            "count" : 2199,
            "type" : "VEC2"
        },
        {
            "bufferView" : 26,
            "componentType" : 5123,
            "count" : 5001,
            "type" : "SCALAR"
        }
    ],
    "bufferViews" : [
        {
            "buffer" : 0,
            "byteLength" : 11112,
            "byteOffset" : 0
        },
        {
            "buffer" : 0,
            "byteLength" : 11112,
            "byteOffset" : 11112
        },
        {
            "buffer" : 0,
            "byteLength" : 7408,
            "byteOffset" : 22224
        },
        {
            "buffer" : 0,
            "byteLength" : 2880,
            "byteOffset" : 29632
        },
        {
            "buffer" : 0,
            "byteLength" : 2112,
            "byteOffset" : 32512
        },
        {
            "buffer" : 0,
            "byteLength" : 2112,
            "byteOffset" : 34624
        },
        {
            "buffer" : 0,
            "byteLength" : 1408,
            "byteOffset" : 36736
        },
        {
            "buffer" : 0,
            "byteLength" : 564,
            "byteOffset" : 38144
        },
        {
            "buffer" : 0,
            "byteLength" : 288,
            "byteOffset" : 38708
        },
        {
            "buffer" : 0,
            "byteLength" : 288,
            "byteOffset" : 38996
        },
        {
            "buffer" : 0,
            "byteLength" : 192,
            "byteOffset" : 39284
        },
        {
            "buffer" : 0,
            "byteLength" : 72,
            "byteOffset" : 39476
        },
        {
            "buffer" : 0,
            "byteLength" : 288,
            "byteOffset" : 39548
        },
        {
            "buffer" : 0,
            "byteLength" : 288,
            "byteOffset" : 39836
        },
        {
            "buffer" : 0,
            "byteLength" : 192,
            "byteOffset" : 40124
        },
        {
            "buffer" : 0,
            "byteLength" : 336,
            "byteOffset" : 40316
        },
        {
            "buffer" : 0,
            "byteLength" : 336,
            "byteOffset" : 40652
        },
        {
            "buffer" : 0,
            "byteLength" : 224,
            "byteOffset" : 40988
        },
        {
            "buffer" : 0,
            "byteLength" : 312,
            "byteOffset" : 41212
        },
        {
            "buffer" : 0,
            "byteLength" : 744,
            "byteOffset" : 41524
        },
        {
            "buffer" : 0,
            "byteLength" : 744,
            "byteOffset" : 42268
        },
        {
            "buffer" : 0,
            "byteLength" : 496,
            "byteOffset" : 43012
        },
        {
            "buffer" : 0,
            "byteLength" : 216,
            "byteOffset" : 43508
        },
        {
            "buffer" : 0,
            "byteLength" : 26388,
            "byteOffset" : 43724
        },
        {
            "buffer" : 0,
            "byteLength" : 26388,
            "byteOffset" : 70112
        },
        {
            "buffer" : 0,
            "byteLength" : 17592,
            "byteOffset" : 96500
        },
        {
            "buffer" : 0,
            "byteLength" : 10002,
            "byteOffset" : 114092
        }
    ],
    "buffers" : [
        {
            "byteLength" : 124096,
            "uri" : "data:application/octet-stream;base64,"
        }
    ]
}
