{
    "asset" : {
        "generator" : "Khronos glTF Blender I/O v3.2.40",
        "version" : "2.0"
    },
    "scene" : 0,
    "scenes" : [
        {
            "name" : "Scene",
            "nodes" : [
                0
            ]
        }
    ],
    "nodes" : [
        {
            "mesh" : 0,
            "name" : "CircularGrid",
            "translation" : [
                0,
                0.5,
                0
            ]
        }
    ],
    "materials" : [
        {
            "doubleSided" : true,
            "name" : "Grid_1000",
            "pbrMetallicRoughness" : {
                "baseColorFactor" : [
                    0.037409838289022446,
                    0.037409838289022446,
                    0.037409838289022446,
                    1
                ],
                "metallicFactor" : 0
            }
        },
        {
            "doubleSided" : true,
            "name" : "Grid_500",
            "pbrMetallicRoughness" : {
                "baseColorFactor" : [
                    0.1328628659248352,
                    0.1328628659248352,
                    0.1328628659248352,
                    1
                ],
                "metallicFactor" : 0
            }
        }
    ],
    "meshes" : [
        {
            "name" : "Cylinder.004",
            "primitives" : [
                {
                    "attributes" : {
                        "POSITION" : 0,
                        "NORMAL" : 1,
                        "TEXCOORD_0" : 2
                    },
                    "indices" : 3,
                    "material" : 0
                },
                {
                    "attributes" : {
                        "POSITION" : 4,
                        "NORMAL" : 5,
                        "TEXCOORD_0" : 6
                    },
                    "indices" : 7,
                    "material" : 1
                }
            ]
        }
    ],
    "accessors" : [
        {
            "bufferView" : 0,
            "componentType" : 5126,
            "count" : 6924,
            "max" : [
                23009.458984375,
                0,
                23009.4609375
            ],
            "min" : [
                -23009.4609375,
                0,
                -23009.4609375
            ],
            "type" : "VEC3"
        },
        {
            "bufferView" : 1,
            "componentType" : 5126,
            "count" : 6924,
            "type" : "VEC3"
        },
        {
            "bufferView" : 2,
            "componentType" : 5126,
            "count" : 6924,
            "type" : "VEC2"
        },
        {
            "bufferView" : 3,
            "componentType" : 5123,
            "count" : 17664,
            "type" : "SCALAR"
        },
        {
            "bufferView" : 4,
            "componentType" : 5126,
            "count" : 6924,
            "max" : [
                22514.091796875,
                0,
                22514.09375
            ],
            "min" : [
                -22514.09375,
                0,
                -22514.09375
            ],
            "type" : "VEC3"
        },
        {
            "bufferView" : 5,
            "componentType" : 5126,
            "count" : 6924,
            "type" : "VEC3"
        },
        {
            "bufferView" : 6,
            "componentType" : 5126,
            "count" : 6924,
            "type" : "VEC2"
        },
        {
            "bufferView" : 7,
            "componentType" : 5123,
            "count" : 17664,
            "type" : "SCALAR"
        }
    ],
    "bufferViews" : [
        {
            "buffer" : 0,
            "byteLength" : 83088,
            "byteOffset" : 0
        },
        {
            "buffer" : 0,
            "byteLength" : 83088,
            "byteOffset" : 83088
        },
        {
            "buffer" : 0,
            "byteLength" : 55392,
            "byteOffset" : 166176
        },
        {
            "buffer" : 0,
            "byteLength" : 35328,
            "byteOffset" : 221568
        },
        {
            "buffer" : 0,
            "byteLength" : 83088,
            "byteOffset" : 256896
        },
        {
            "buffer" : 0,
            "byteLength" : 83088,
            "byteOffset" : 339984
        },
        {
            "buffer" : 0,
            "byteLength" : 55392,
            "byteOffset" : 423072
        },
        {
            "buffer" : 0,
            "byteLength" : 35328,
            "byteOffset" : 478464
        }
    ],
    "buffers" : [
        {
            "byteLength" : 513792,
            "uri" : "data:application/octet-stream;base64,"
        }
    ]
}
