{
    "asset" : {
        "generator" : "Khronos glTF Blender I/O v3.2.40",
        "version" : "2.0"
    },
    "scene" : 0,
    "scenes" : [
        {
            "name" : "Scene",
            "nodes" : [
                0
            ]
        }
    ],
    "nodes" : [
        {
            "mesh" : 0,
            "name" : "Cloudz",
            "translation" : [
                0,
                4934.8974609375,
                0
            ]
        }
    ],
    "materials" : [
        {
            "doubleSided" : true,
            "name" : "cloud1",
            "pbrMetallicRoughness" : {
                "baseColorFactor" : [
                    0.6077466607093811,
                    0.7258055806159973,
                    0.8829208612442017,
                    1
                ],
                "metallicFactor" : 0,
                "roughnessFactor" : 0.5
            }
        },
        {
            "doubleSided" : true,
            "name" : "cloud2",
            "pbrMetallicRoughness" : {
                "baseColorFactor" : [
                    0.45911741256713867,
                    0.7180736660957336,
                    0.761273205280304,
                    1
                ],
                "metallicFactor" : 0,
                "roughnessFactor" : 0.5
            }
        },
        {
            "doubleSided" : true,
            "name" : "cloud3",
            "pbrMetallicRoughness" : {
                "baseColorFactor" : [
                    0.4114628732204437,
                    0.7584232091903687,
                    0.9403918385505676,
                    1
                ],
                "metallicFactor" : 0,
                "roughnessFactor" : 0.5
            }
        }
    ],
    "meshes" : [
        {
            "name" : "Cylinder.002",
            "primitives" : [
                {
                    "attributes" : {
                        "POSITION" : 0,
                        "NORMAL" : 1,
                        "TEXCOORD_0" : 2
                    },
                    "indices" : 3,
                    "material" : 0
                },
                {
                    "attributes" : {
                        "POSITION" : 4,
                        "NORMAL" : 5,
                        "TEXCOORD_0" : 6
                    },
                    "indices" : 7,
                    "material" : 1
                },
                {
                    "attributes" : {
                        "POSITION" : 8,
                        "NORMAL" : 9,
                        "TEXCOORD_0" : 10
                    },
                    "indices" : 11,
                    "material" : 2
                }
            ]
        }
    ],
    "accessors" : [
        {
            "bufferView" : 0,
            "componentType" : 5126,
            "count" : 202,
            "max" : [
                51744,
                1831.95068359375,
                51744
            ],
            "min" : [
                -52063.4296875,
                -974.2863159179688,
                -51744
            ],
            "type" : "VEC3"
        },
        {
            "bufferView" : 1,
            "componentType" : 5126,
            "count" : 202,
            "type" : "VEC3"
        },
        {
            "bufferView" : 2,
            "componentType" : 5126,
            "count" : 202,
            "type" : "VEC2"
        },
        {
            "bufferView" : 3,
            "componentType" : 5123,
            "count" : 564,
            "type" : "SCALAR"
        },
        {
            "bufferView" : 4,
            "componentType" : 5126,
            "count" : 202,
            "max" : [
                52138.6015625,
                10202.95703125,
                52963.8515625
            ],
            "min" : [
                -52710.40625,
                1922.57177734375,
                -52685.34375
            ],
            "type" : "VEC3"
        },
        {
            "bufferView" : 5,
            "componentType" : 5126,
            "count" : 202,
            "type" : "VEC3"
        },
        {
            "bufferView" : 6,
            "componentType" : 5126,
            "count" : 202,
            "type" : "VEC2"
        },
        {
            "bufferView" : 7,
            "componentType" : 5123,
            "count" : 564,
            "type" : "SCALAR"
        },
        {
            "bufferView" : 8,
            "componentType" : 5126,
            "count" : 258,
            "max" : [
                51044.328125,
                13311.1171875,
                51044.328125
            ],
            "min" : [
                -51021.765625,
                12217.193359375,
                -51044.328125
            ],
            "type" : "VEC3"
        },
        {
            "bufferView" : 9,
            "componentType" : 5126,
            "count" : 258,
            "type" : "VEC3"
        },
        {
            "bufferView" : 10,
            "componentType" : 5126,
            "count" : 258,
            "type" : "VEC2"
        },
        {
            "bufferView" : 11,
            "componentType" : 5123,
            "count" : 768,
            "type" : "SCALAR"
        }
    ],
    "bufferViews" : [
        {
            "buffer" : 0,
            "byteLength" : 2424,
            "byteOffset" : 0
        },
        {
            "buffer" : 0,
            "byteLength" : 2424,
            "byteOffset" : 2424
        },
        {
            "buffer" : 0,
            "byteLength" : 1616,
            "byteOffset" : 4848
        },
        {
            "buffer" : 0,
            "byteLength" : 1128,
            "byteOffset" : 6464
        },
        {
            "buffer" : 0,
            "byteLength" : 2424,
            "byteOffset" : 7592
        },
        {
            "buffer" : 0,
            "byteLength" : 2424,
            "byteOffset" : 10016
        },
        {
            "buffer" : 0,
            "byteLength" : 1616,
            "byteOffset" : 12440
        },
        {
            "buffer" : 0,
            "byteLength" : 1128,
            "byteOffset" : 14056
        },
        {
            "buffer" : 0,
            "byteLength" : 3096,
            "byteOffset" : 15184
        },
        {
            "buffer" : 0,
            "byteLength" : 3096,
            "byteOffset" : 18280
        },
        {
            "buffer" : 0,
            "byteLength" : 2064,
            "byteOffset" : 21376
        },
        {
            "buffer" : 0,
            "byteLength" : 1536,
            "byteOffset" : 23440
        }
    ],
    "buffers" : [
        {
            "byteLength" : 24976,
            "uri" : "data:application/octet-stream;base64,"
        }
    ]
}
