{
    "asset" : {
        "generator" : "Khronos glTF Blender I/O v3.2.40",
        "version" : "2.0"
    },
    "scene" : 0,
    "scenes" : [
        {
            "name" : "Scene",
            "nodes" : [
                1
            ]
        }
    ],
    "nodes" : [
        {
            "mesh" : 0,
            "name" : "water_Haven",
            "translation" : [
                2056.31005859375,
                0,
                -1094.300048828125
            ]
        },
        {
            "children" : [
                0
            ],
            "mesh" : 1,
            "name" : "island_Haven",
            "rotation" : [
                0,
                -1,
                0,
                1.6292068494294654e-07
            ]
        }
    ],
    "materials" : [
        {
            "doubleSided" : true,
            "name" : "water",
            "pbrMetallicRoughness" : {
                "baseColorFactor" : [
                    0,
                    0.09646126627922058,
                    0.46928542852401733,
                    1
                ],
                "metallicFactor" : 0,
                "roughnessFactor" : 0.5
            }
        },
        {
            "doubleSided" : true,
            "name" : "Sand",
            "pbrMetallicRoughness" : {
                "baseColorFactor" : [
                    0.8000000715255737,
                    0.40807512402534485,
                    0.031441327184438705,
                    1
                ],
                "metallicFactor" : 0,
                "roughnessFactor" : 0.5
            }
        }
    ],
    "meshes" : [
        {
            "name" : "Cylinder",
            "primitives" : [
                {
                    "attributes" : {
                        "POSITION" : 0,
                        "NORMAL" : 1,
                        "TEXCOORD_0" : 2
                    },
                    "indices" : 3,
                    "material" : 0
                }
            ]
        },
        {
            "name" : "new_mesh.006",
            "primitives" : [
                {
                    "attributes" : {
                        "POSITION" : 4,
                        "NORMAL" : 5
                    },
                    "indices" : 6,
                    "material" : 1
                }
            ]
        }
    ],
    "accessors" : [
        {
            "bufferView" : 0,
            "componentType" : 5126,
            "count" : 3075,
            "max" : [
                409.85443115234375,
                0.5123180747032166,
                409.8544616699219
            ],
            "min" : [
                -409.8544921875,
                0.5123180747032166,
                -409.8544616699219
            ],
            "type" : "VEC3"
        },
        {
            "bufferView" : 1,
            "componentType" : 5126,
            "count" : 3075,
            "type" : "VEC3"
        },
        {
            "bufferView" : 2,
            "componentType" : 5126,
            "count" : 3075,
            "type" : "VEC2"
        },
        {
            "bufferView" : 3,
            "componentType" : 5123,
            "count" : 6714,
            "type" : "SCALAR"
        },
        {
            "bufferView" : 4,
            "componentType" : 5126,
            "count" : 684,
            "max" : [
                2318,
                19.01270294189453,
                -810
            ],
            "min" : [
                1804,
                0,
                -1387
            ],
            "type" : "VEC3"
        },
        {
            "bufferView" : 5,
            "componentType" : 5126,
            "count" : 684,
            "type" : "VEC3"
        },
        {
            "bufferView" : 6,
            "componentType" : 5123,
            "count" : 1356,
            "type" : "SCALAR"
        }
    ],
    "bufferViews" : [
        {
            "buffer" : 0,
            "byteLength" : 36900,
            "byteOffset" : 0
        },
        {
            "buffer" : 0,
            "byteLength" : 36900,
            "byteOffset" : 36900
        },
        {
            "buffer" : 0,
            "byteLength" : 24600,
            "byteOffset" : 73800
        },
        {
            "buffer" : 0,
            "byteLength" : 13428,
            "byteOffset" : 98400
        },
        {
            "buffer" : 0,
            "byteLength" : 8208,
            "byteOffset" : 111828
        },
        {
            "buffer" : 0,
            "byteLength" : 8208,
            "byteOffset" : 120036
        },
        {
            "buffer" : 0,
            "byteLength" : 2712,
            "byteOffset" : 128244
        }
    ],
    "buffers" : [
        {
            "byteLength" : 130956,
            "uri" : "data:application/octet-stream;base64,"
        }
    ]
}
