{
    "asset" : {
        "generator" : "Khronos glTF Blender I/O v3.2.40",
        "version" : "2.0"
    },
    "scene" : 0,
    "scenes" : [
        {
            "name" : "Scene",
            "nodes" : [
                0,
                1
            ]
        }
    ],
    "nodes" : [
        {
            "mesh" : 0,
            "name" : "Mountains"
        },
        {
            "mesh" : 1,
            "name" : "Cave_bottom",
            "scale" : [
                1.0020661354064941,
                1,
                1.0020661354064941
            ],
            "translation" : [
                -26.715057373046875,
                0,
                29.0968017578125
            ]
        }
    ],
    "materials" : [
        {
            "doubleSided" : true,
            "name" : "Mountains",
            "pbrMetallicRoughness" : {
                "baseColorFactor" : [
                    0.09732519090175629,
                    0.11467602849006653,
                    0.13758304715156555,
                    1
                ],
                "metallicFactor" : 0,
                "roughnessFactor" : 0.5
            }
        },
        {
            "doubleSided" : true,
            "name" : "Mountains.001",
            "pbrMetallicRoughness" : {
                "baseColorFactor" : [
                    0.022834140807390213,
                    0.09083731472492218,
                    0.036948416382074356,
                    1
                ],
                "metallicFactor" : 0,
                "roughnessFactor" : 0.5
            }
        },
        {
            "doubleSided" : true,
            "name" : "Mountains.002",
            "pbrMetallicRoughness" : {
                "baseColorFactor" : [
                    0.19389428198337555,
                    0.22145049273967743,
                    0.25791534781455994,
                    1
                ],
                "metallicFactor" : 0,
                "roughnessFactor" : 0.5
            }
        },
        {
            "doubleSided" : true,
            "name" : "Cave",
            "pbrMetallicRoughness" : {
                "baseColorFactor" : [
                    0.013410338200628757,
                    0.013410338200628757,
                    0.013410338200628757,
                    1
                ],
                "metallicFactor" : 0
            }
        }
    ],
    "meshes" : [
        {
            "name" : "Cylinder",
            "primitives" : [
                {
                    "attributes" : {
                        "POSITION" : 0,
                        "NORMAL" : 1,
                        "TEXCOORD_0" : 2
                    },
                    "indices" : 3,
                    "material" : 0
                },
                {
                    "attributes" : {
                        "POSITION" : 4,
                        "NORMAL" : 5,
                        "TEXCOORD_0" : 6
                    },
                    "indices" : 3,
                    "material" : 1
                },
                {
                    "attributes" : {
                        "POSITION" : 7,
                        "NORMAL" : 8,
                        "TEXCOORD_0" : 9
                    },
                    "indices" : 3,
                    "material" : 2
                }
            ]
        },
        {
            "name" : "Cylinder.003",
            "primitives" : [
                {
                    "attributes" : {
                        "POSITION" : 10,
                        "NORMAL" : 11,
                        "TEXCOORD_0" : 12
                    },
                    "indices" : 13,
                    "material" : 3
                }
            ]
        }
    ],
    "accessors" : [
        {
            "bufferView" : 0,
            "componentType" : 5126,
            "count" : 258,
            "max" : [
                51744,
                3904.9951171875,
                51744
            ],
            "min" : [
                -52063.4296875,
                0,
                -51744
            ],
            "type" : "VEC3"
        },
        {
            "bufferView" : 1,
            "componentType" : 5126,
            "count" : 258,
            "type" : "VEC3"
        },
        {
            "bufferView" : 2,
            "componentType" : 5126,
            "count" : 258,
            "type" : "VEC2"
        },
        {
            "bufferView" : 3,
            "componentType" : 5123,
            "count" : 768,
            "type" : "SCALAR"
        },
        {
            "bufferView" : 4,
            "componentType" : 5126,
            "count" : 258,
            "max" : [
                51044.328125,
                2624.31640625,
                51044.328125
            ],
            "min" : [
                -51021.765625,
                0,
                -51044.328125
            ],
            "type" : "VEC3"
        },
        {
            "bufferView" : 5,
            "componentType" : 5126,
            "count" : 258,
            "type" : "VEC3"
        },
        {
            "bufferView" : 6,
            "componentType" : 5126,
            "count" : 258,
            "type" : "VEC2"
        },
        {
            "bufferView" : 7,
            "componentType" : 5126,
            "count" : 258,
            "max" : [
                52685.3515625,
                3232.082763671875,
                53024.2265625
            ],
            "min" : [
                -52710.40625,
                0,
                -52685.34375
            ],
            "type" : "VEC3"
        },
        {
            "bufferView" : 8,
            "componentType" : 5126,
            "count" : 258,
            "type" : "VEC3"
        },
        {
            "bufferView" : 9,
            "componentType" : 5126,
            "count" : 258,
            "type" : "VEC2"
        },
        {
            "bufferView" : 10,
            "componentType" : 5126,
            "count" : 162,
            "max" : [
                52916.29296875,
                -1,
                52916.29296875
            ],
            "min" : [
                -52916.29296875,
                -54772.62109375,
                -52916.29296875
            ],
            "type" : "VEC3"
        },
        {
            "bufferView" : 11,
            "componentType" : 5126,
            "count" : 162,
            "type" : "VEC3"
        },
        {
            "bufferView" : 12,
            "componentType" : 5126,
            "count" : 162,
            "type" : "VEC2"
        },
        {
            "bufferView" : 13,
            "componentType" : 5123,
            "count" : 666,
            "type" : "SCALAR"
        }
    ],
    "bufferViews" : [
        {
            "buffer" : 0,
            "byteLength" : 3096,
            "byteOffset" : 0
        },
        {
            "buffer" : 0,
            "byteLength" : 3096,
            "byteOffset" : 3096
        },
        {
            "buffer" : 0,
            "byteLength" : 2064,
            "byteOffset" : 6192
        },
        {
            "buffer" : 0,
            "byteLength" : 1536,
            "byteOffset" : 8256
        },
        {
            "buffer" : 0,
            "byteLength" : 3096,
            "byteOffset" : 9792
        },
        {
            "buffer" : 0,
            "byteLength" : 3096,
            "byteOffset" : 12888
        },
        {
            "buffer" : 0,
            "byteLength" : 2064,
            "byteOffset" : 15984
        },
        {
            "buffer" : 0,
            "byteLength" : 3096,
            "byteOffset" : 18048
        },
        {
            "buffer" : 0,
            "byteLength" : 3096,
            "byteOffset" : 21144
        },
        {
            "buffer" : 0,
            "byteLength" : 2064,
            "byteOffset" : 24240
        },
        {
            "buffer" : 0,
            "byteLength" : 1944,
            "byteOffset" : 26304
        },
        {
            "buffer" : 0,
            "byteLength" : 1944,
            "byteOffset" : 28248
        },
        {
            "buffer" : 0,
            "byteLength" : 1296,
            "byteOffset" : 30192
        },
        {
            "buffer" : 0,
            "byteLength" : 1332,
            "byteOffset" : 31488
        }
    ],
    "buffers" : [
        {
            "byteLength" : 32820,
            "uri" : "data:application/octet-stream;base64,"
        }
    ]
}
