{
    "asset" : {
        "generator" : "Khronos glTF Blender I/O v3.2.40",
        "version" : "2.0"
    },
    "scene" : 0,
    "scenes" : [
        {
            "name" : "Scene",
            "nodes" : [
                5
            ]
        }
    ],
    "nodes" : [
        {
            "mesh" : 0,
            "name" : "Cube",
            "rotation" : [
                0.006097020115703344,
                -0.11540059000253677,
                0.43672358989715576,
                0.8921424150466919
            ],
            "scale" : [
                4.970907211303711,
                4.970906734466553,
                4.970907211303711
            ],
            "translation" : [
                1.3681656122207642,
                8.286578178405762,
                -5.943398475646973
            ]
        },
        {
            "mesh" : 1,
            "name" : "Cube.001",
            "rotation" : [
                -0.0797712504863739,
                -0.7921534776687622,
                0.4367748498916626,
                0.41875672340393066
            ],
            "scale" : [
                4.970907211303711,
                4.970907211303711,
                4.970907211303711
            ],
            "translation" : [
                -3.0690793991088867,
                10.019987106323242,
                8.836641311645508
            ]
        },
        {
            "mesh" : 2,
            "name" : "Cube.002",
            "rotation" : [
                -0.7354065775871277,
                0.4641983211040497,
                0.24603989720344543,
                0.4279736876487732
            ],
            "scale" : [
                3.956493377685547,
                3.9564929008483887,
                3.9564931392669678
            ],
            "translation" : [
                5.8729352951049805,
                9.459833145141602,
                7.2984795570373535
            ]
        },
        {
            "mesh" : 3,
            "name" : "Cube.003",
            "rotation" : [
                -0.6363091468811035,
                0.29555365443229675,
                0.18507419526576996,
                0.6881179809570312
            ],
            "scale" : [
                3.9564931392669678,
                3.9564931392669678,
                7.6853179931640625
            ],
            "translation" : [
                -3.7227206230163574,
                13.02796745300293,
                -3.010607957839966
            ]
        },
        {
            "children" : [
                0,
                1,
                2,
                3
            ],
            "mesh" : 4,
            "name" : "waggon",
            "rotation" : [
                0,
                0,
                0.7071068286895752,
                0.7071068286895752
            ],
            "translation" : [
                -7.9761271476745605,
                -7.215113162994385,
                -9.915958404541016
            ]
        },
        {
            "children" : [
                4
            ],
            "mesh" : 5,
            "name" : "Waggon_Wheels",
            "rotation" : [
                0,
                0,
                -0.7071068286895752,
                0.7071068286895752
            ],
            "translation" : [
                7.215113162994385,
                -2.315009832382202,
                9.915958404541016
            ]
        }
    ],
    "materials" : [
        {
            "doubleSided" : true,
            "name" : "Gold",
            "pbrMetallicRoughness" : {
                "baseColorFactor" : [
                    0.7991029024124146,
                    0.40723997354507446,
                    0.03189617022871971,
                    1
                ],
                "metallicFactor" : 0.75,
                "roughnessFactor" : 0.13779526948928833
            }
        },
        {
            "doubleSided" : true,
            "name" : "Diamond",
            "pbrMetallicRoughness" : {
                "baseColorFactor" : [
                    0,
                    0.7991030812263489,
                    0.7782099843025208,
                    1
                ],
                "metallicFactor" : 0.75,
                "roughnessFactor" : 0.13779526948928833
            }
        },
        {
            "doubleSided" : true,
            "name" : "Gold.001",
            "pbrMetallicRoughness" : {
                "baseColorFactor" : [
                    0.0029074109625071287,
                    0.7991030812263489,
                    0,
                    1
                ],
                "metallicFactor" : 0.75,
                "roughnessFactor" : 0.13779526948928833
            }
        },
        {
            "doubleSided" : true,
            "name" : "Gold.002",
            "pbrMetallicRoughness" : {
                "baseColorFactor" : [
                    0.7991030812263489,
                    0,
                    0.36152079701423645,
                    1
                ],
                "metallicFactor" : 0.75,
                "roughnessFactor" : 0.13779526948928833
            }
        },
        {
            "doubleSided" : true,
            "name" : "Wood.001",
            "pbrMetallicRoughness" : {
                "baseColorFactor" : [
                    0.19596990942955017,
                    0.12520158290863037,
                    0.023850155994296074,
                    1
                ],
                "metallicFactor" : 0,
                "roughnessFactor" : 0.5
            }
        },
        {
            "doubleSided" : true,
            "name" : "Material.002",
            "pbrMetallicRoughness" : {
                "baseColorFactor" : [
                    0.18446840345859528,
                    0.18446840345859528,
                    0.18446840345859528,
                    1
                ],
                "metallicFactor" : 0.7007874250411987,
                "roughnessFactor" : 0.35039371252059937
            }
        },
        {
            "doubleSided" : true,
            "name" : "Wood",
            "pbrMetallicRoughness" : {
                "baseColorFactor" : [
                    0.03987376019358635,
                    0.011786931194365025,
                    0.00506245344877243,
                    1
                ],
                "metallicFactor" : 0,
                "roughnessFactor" : 0.5
            }
        }
    ],
    "meshes" : [
        {
            "name" : "Cube.003",
            "primitives" : [
                {
                    "attributes" : {
                        "POSITION" : 0,
                        "NORMAL" : 1,
                        "TEXCOORD_0" : 2
                    },
                    "indices" : 3,
                    "material" : 0
                }
            ]
        },
        {
            "name" : "Cube.004",
            "primitives" : [
                {
                    "attributes" : {
                        "POSITION" : 4,
                        "NORMAL" : 5,
                        "TEXCOORD_0" : 6
                    },
                    "indices" : 7,
                    "material" : 1
                }
            ]
        },
        {
            "name" : "Cube.005",
            "primitives" : [
                {
                    "attributes" : {
                        "POSITION" : 8,
                        "NORMAL" : 9,
                        "TEXCOORD_0" : 10
                    },
                    "indices" : 11,
                    "material" : 2
                }
            ]
        },
        {
            "name" : "Cube.006",
            "primitives" : [
                {
                    "attributes" : {
                        "POSITION" : 12,
                        "NORMAL" : 13,
                        "TEXCOORD_0" : 14
                    },
                    "indices" : 15,
                    "material" : 3
                }
            ]
        },
        {
            "name" : "Cube",
            "primitives" : [
                {
                    "attributes" : {
                        "POSITION" : 16,
                        "NORMAL" : 17,
                        "TEXCOORD_0" : 18
                    },
                    "indices" : 19,
                    "material" : 4
                },
                {
                    "attributes" : {
                        "POSITION" : 20,
                        "NORMAL" : 21,
                        "TEXCOORD_0" : 22
                    },
                    "indices" : 23,
                    "material" : 5
                }
            ]
        },
        {
            "name" : "Cylinder",
            "primitives" : [
                {
                    "attributes" : {
                        "POSITION" : 24,
                        "NORMAL" : 25,
                        "TEXCOORD_0" : 26
                    },
                    "indices" : 27,
                    "material" : 6
                },
                {
                    "attributes" : {
                        "POSITION" : 28,
                        "NORMAL" : 29,
                        "TEXCOORD_0" : 30
                    },
                    "indices" : 31,
                    "material" : 5
                }
            ]
        }
    ],
    "accessors" : [
        {
            "bufferView" : 0,
            "componentType" : 5126,
            "count" : 96,
            "max" : [
                1.8309623003005981,
                1.3744127750396729,
                2.1605119705200195
            ],
            "min" : [
                -1.911394476890564,
                -1.5403425693511963,
                -1.8935959339141846
            ],
            "type" : "VEC3"
        },
        {
            "bufferView" : 1,
            "componentType" : 5126,
            "count" : 96,
            "type" : "VEC3"
        },
        {
            "bufferView" : 2,
            "componentType" : 5126,
            "count" : 96,
            "type" : "VEC2"
        },
        {
            "bufferView" : 3,
            "componentType" : 5123,
            "count" : 144,
            "type" : "SCALAR"
        },
        {
            "bufferView" : 4,
            "componentType" : 5126,
            "count" : 96,
            "max" : [
                1.2978966236114502,
                1.3602893352508545,
                1.3206456899642944
            ],
            "min" : [
                -1.3585388660430908,
                -1.3082606792449951,
                -1.3132768869400024
            ],
            "type" : "VEC3"
        },
        {
            "bufferView" : 5,
            "componentType" : 5126,
            "count" : 96,
            "type" : "VEC3"
        },
        {
            "bufferView" : 6,
            "componentType" : 5126,
            "count" : 96,
            "type" : "VEC2"
        },
        {
            "bufferView" : 7,
            "componentType" : 5123,
            "count" : 144,
            "type" : "SCALAR"
        },
        {
            "bufferView" : 8,
            "componentType" : 5126,
            "count" : 96,
            "max" : [
                1.3337503671646118,
                1.5718088150024414,
                1.5629701614379883
            ],
            "min" : [
                -1.5738191604614258,
                -1.369922399520874,
                -1.2952516078948975
            ],
            "type" : "VEC3"
        },
        {
            "bufferView" : 9,
            "componentType" : 5126,
            "count" : 96,
            "type" : "VEC3"
        },
        {
            "bufferView" : 10,
            "componentType" : 5126,
            "count" : 96,
            "type" : "VEC2"
        },
        {
            "bufferView" : 11,
            "componentType" : 5123,
            "count" : 144,
            "type" : "SCALAR"
        },
        {
            "bufferView" : 12,
            "componentType" : 5126,
            "count" : 96,
            "max" : [
                2.2963833808898926,
                3.0085630416870117,
                0.6279183626174927
            ],
            "min" : [
                -1.0164896249771118,
                -0.8169234991073608,
                -0.9413580894470215
            ],
            "type" : "VEC3"
        },
        {
            "bufferView" : 13,
            "componentType" : 5126,
            "count" : 96,
            "type" : "VEC3"
        },
        {
            "bufferView" : 14,
            "componentType" : 5126,
            "count" : 96,
            "type" : "VEC2"
        },
        {
            "bufferView" : 15,
            "componentType" : 5123,
            "count" : 144,
            "type" : "SCALAR"
        },
        {
            "bufferView" : 16,
            "componentType" : 5126,
            "count" : 2688,
            "max" : [
                10.85587215423584,
                12.763903617858887,
                16.083051681518555
            ],
            "min" : [
                -10.802495956420898,
                -5.115581512451172,
                -15.974408149719238
            ],
            "type" : "VEC3"
        },
        {
            "bufferView" : 17,
            "componentType" : 5126,
            "count" : 2688,
            "type" : "VEC3"
        },
        {
            "bufferView" : 18,
            "componentType" : 5126,
            "count" : 2688,
            "type" : "VEC2"
        },
        {
            "bufferView" : 19,
            "componentType" : 5123,
            "count" : 3840,
            "type" : "SCALAR"
        },
        {
            "bufferView" : 20,
            "componentType" : 5126,
            "count" : 1512,
            "max" : [
                11.098417282104492,
                12.979345321655273,
                16.652645111083984
            ],
            "min" : [
                -11.171623229980469,
                -6.256695747375488,
                -16.57613182067871
            ],
            "type" : "VEC3"
        },
        {
            "bufferView" : 21,
            "componentType" : 5126,
            "count" : 1512,
            "type" : "VEC3"
        },
        {
            "bufferView" : 22,
            "componentType" : 5126,
            "count" : 1512,
            "type" : "VEC2"
        },
        {
            "bufferView" : 23,
            "componentType" : 5123,
            "count" : 2208,
            "type" : "SCALAR"
        },
        {
            "bufferView" : 24,
            "componentType" : 5126,
            "count" : 714,
            "max" : [
                5.000000953674316,
                1.7052353620529175,
                5
            ],
            "min" : [
                -5,
                -16.135461807250977,
                -24.83191680908203
            ],
            "type" : "VEC3"
        },
        {
            "bufferView" : 25,
            "componentType" : 5126,
            "count" : 714,
            "type" : "VEC3"
        },
        {
            "bufferView" : 26,
            "componentType" : 5126,
            "count" : 714,
            "type" : "VEC2"
        },
        {
            "bufferView" : 27,
            "componentType" : 5123,
            "count" : 1296,
            "type" : "SCALAR"
        },
        {
            "bufferView" : 28,
            "componentType" : 5126,
            "count" : 2080,
            "max" : [
                5.000000953674316,
                2.2866997718811035,
                5
            ],
            "min" : [
                -5,
                -16.71692657470703,
                -24.83191680908203
            ],
            "type" : "VEC3"
        },
        {
            "bufferView" : 29,
            "componentType" : 5126,
            "count" : 2080,
            "type" : "VEC3"
        },
        {
            "bufferView" : 30,
            "componentType" : 5126,
            "count" : 2080,
            "type" : "VEC2"
        },
        {
            "bufferView" : 31,
            "componentType" : 5123,
            "count" : 3420,
            "type" : "SCALAR"
        }
    ],
    "bufferViews" : [
        {
            "buffer" : 0,
            "byteLength" : 1152,
            "byteOffset" : 0
        },
        {
            "buffer" : 0,
            "byteLength" : 1152,
            "byteOffset" : 1152
        },
        {
            "buffer" : 0,
            "byteLength" : 768,
            "byteOffset" : 2304
        },
        {
            "buffer" : 0,
            "byteLength" : 288,
            "byteOffset" : 3072
        },
        {
            "buffer" : 0,
            "byteLength" : 1152,
            "byteOffset" : 3360
        },
        {
            "buffer" : 0,
            "byteLength" : 1152,
            "byteOffset" : 4512
        },
        {
            "buffer" : 0,
            "byteLength" : 768,
            "byteOffset" : 5664
        },
        {
            "buffer" : 0,
            "byteLength" : 288,
            "byteOffset" : 6432
        },
        {
            "buffer" : 0,
            "byteLength" : 1152,
            "byteOffset" : 6720
        },
        {
            "buffer" : 0,
            "byteLength" : 1152,
            "byteOffset" : 7872
        },
        {
            "buffer" : 0,
            "byteLength" : 768,
            "byteOffset" : 9024
        },
        {
            "buffer" : 0,
            "byteLength" : 288,
            "byteOffset" : 9792
        },
        {
            "buffer" : 0,
            "byteLength" : 1152,
            "byteOffset" : 10080
        },
        {
            "buffer" : 0,
            "byteLength" : 1152,
            "byteOffset" : 11232
        },
        {
            "buffer" : 0,
            "byteLength" : 768,
            "byteOffset" : 12384
        },
        {
            "buffer" : 0,
            "byteLength" : 288,
            "byteOffset" : 13152
        },
        {
            "buffer" : 0,
            "byteLength" : 32256,
            "byteOffset" : 13440
        },
        {
            "buffer" : 0,
            "byteLength" : 32256,
            "byteOffset" : 45696
        },
        {
            "buffer" : 0,
            "byteLength" : 21504,
            "byteOffset" : 77952
        },
        {
            "buffer" : 0,
            "byteLength" : 7680,
            "byteOffset" : 99456
        },
        {
            "buffer" : 0,
            "byteLength" : 18144,
            "byteOffset" : 107136
        },
        {
            "buffer" : 0,
            "byteLength" : 18144,
            "byteOffset" : 125280
        },
        {
            "buffer" : 0,
            "byteLength" : 12096,
            "byteOffset" : 143424
        },
        {
            "buffer" : 0,
            "byteLength" : 4416,
            "byteOffset" : 155520
        },
        {
            "buffer" : 0,
            "byteLength" : 8568,
            "byteOffset" : 159936
        },
        {
            "buffer" : 0,
            "byteLength" : 8568,
            "byteOffset" : 168504
        },
        {
            "buffer" : 0,
            "byteLength" : 5712,
            "byteOffset" : 177072
        },
        {
            "buffer" : 0,
            "byteLength" : 2592,
            "byteOffset" : 182784
        },
        {
            "buffer" : 0,
            "byteLength" : 24960,
            "byteOffset" : 185376
        },
        {
            "buffer" : 0,
            "byteLength" : 24960,
            "byteOffset" : 210336
        },
        {
            "buffer" : 0,
            "byteLength" : 16640,
            "byteOffset" : 235296
        },
        {
            "buffer" : 0,
            "byteLength" : 6840,
            "byteOffset" : 251936
        }
    ],
    "buffers" : [
        {
            "byteLength" : 258776,
            "uri" : "data:application/octet-stream;base64,"
        }
    ]
}
