{
    "asset" : {
        "generator" : "Khronos glTF Blender I/O v3.2.40",
        "version" : "2.0"
    },
    "scene" : 0,
    "scenes" : [
        {
            "name" : "Scene",
            "nodes" : [
                0
            ]
        },
        {
            "name" : "Scene.001",
            "nodes" : [
                1
            ]
        }
    ],
    "nodes" : [
        {
            "mesh" : 0,
            "name" : "Balloon",
            "rotation" : [
                0.7071068286895752,
                0,
                0,
                0.7071068286895752
            ],
            "translation" : [
                0,
                0.17857462167739868,
                -0.005871616303920746
            ]
        },
        {
            "mesh" : 1,
            "name" : "Text",
            "translation" : [
                0,
                13.06796646118164,
                -0.11291143298149109
            ]
        }
    ],
    "materials" : [
        {
            "doubleSided" : true,
            "name" : "Baloon",
            "pbrMetallicRoughness" : {
                "baseColorFactor" : [
                    0.7279788255691528,
                    0.7279788255691528,
                    0.7279788255691528,
                    1
                ],
                "metallicFactor" : 0,
                "roughnessFactor" : 0.5
            }
        },
        {
            "doubleSided" : true,
            "name" : "Wood",
            "pbrMetallicRoughness" : {
                "baseColorFactor" : [
                    0.03987376019358635,
                    0.011786931194365025,
                    0.00506245344877243,
                    1
                ],
                "metallicFactor" : 0,
                "roughnessFactor" : 0.5
            }
        },
        {
            "doubleSided" : true,
            "name" : "Cabi",
            "pbrMetallicRoughness" : {
                "baseColorFactor" : [
                    0.24617834389209747,
                    0.08951053768396378,
                    0.01572713628411293,
                    1
                ],
                "metallicFactor" : 0,
                "roughnessFactor" : 0.5
            }
        },
        {
            "alphaMode" : "BLEND",
            "doubleSided" : true,
            "emissiveFactor" : [
                0.10461650043725967,
                0.5209956765174866,
                0.799102783203125
            ],
            "name" : "Glass",
            "pbrMetallicRoughness" : {
                "baseColorFactor" : [
                    0.10558385401964188,
                    0.5227695107460022,
                    0.8000000715255737,
                    1
                ],
                "metallicFactor" : 0.8587786555290222,
                "roughnessFactor" : 0.10305342078208923
            }
        }
    ],
    "meshes" : [
        {
            "name" : "Sphere",
            "primitives" : [
                {
                    "attributes" : {
                        "POSITION" : 0,
                        "NORMAL" : 1,
                        "TEXCOORD_0" : 2
                    },
                    "indices" : 3,
                    "material" : 0
                },
                {
                    "attributes" : {
                        "POSITION" : 4,
                        "NORMAL" : 5,
                        "TEXCOORD_0" : 6
                    },
                    "indices" : 7,
                    "material" : 1
                },
                {
                    "attributes" : {
                        "POSITION" : 8,
                        "NORMAL" : 9,
                        "TEXCOORD_0" : 10
                    },
                    "indices" : 11,
                    "material" : 2
                },
                {
                    "attributes" : {
                        "POSITION" : 12,
                        "NORMAL" : 13,
                        "TEXCOORD_0" : 14
                    },
                    "indices" : 15,
                    "material" : 3
                }
            ]
        },
        {
            "name" : "Text",
            "primitives" : [
                {
                    "attributes" : {
                        "POSITION" : 16,
                        "NORMAL" : 17,
                        "TEXCOORD_0" : 18
                    },
                    "indices" : 19
                }
            ]
        }
    ],
    "accessors" : [
        {
            "bufferView" : 0,
            "componentType" : 5126,
            "count" : 182,
            "max" : [
                9.504844665527344,
                16.527284622192383,
                8.783798217773438
            ],
            "min" : [
                -9.50484561920166,
                -17.27225112915039,
                -9.749279975891113
            ],
            "type" : "VEC3"
        },
        {
            "bufferView" : 1,
            "componentType" : 5126,
            "count" : 182,
            "type" : "VEC3"
        },
        {
            "bufferView" : 2,
            "componentType" : 5126,
            "count" : 182,
            "type" : "VEC2"
        },
        {
            "bufferView" : 3,
            "componentType" : 5123,
            "count" : 252,
            "type" : "SCALAR"
        },
        {
            "bufferView" : 4,
            "componentType" : 5126,
            "count" : 266,
            "max" : [
                14.72135066986084,
                8.110337257385254,
                11.498476028442383
            ],
            "min" : [
                -14.721353530883789,
                -14.106624603271484,
                -11.49847412109375
            ],
            "type" : "VEC3"
        },
        {
            "bufferView" : 5,
            "componentType" : 5126,
            "count" : 266,
            "type" : "VEC3"
        },
        {
            "bufferView" : 6,
            "componentType" : 5126,
            "count" : 266,
            "type" : "VEC2"
        },
        {
            "bufferView" : 7,
            "componentType" : 5123,
            "count" : 444,
            "type" : "SCALAR"
        },
        {
            "bufferView" : 8,
            "componentType" : 5126,
            "count" : 466,
            "max" : [
                2.542642593383789,
                8.110337257385254,
                10.710088729858398
            ],
            "min" : [
                -2.542642593383789,
                -1.2713220119476318,
                8.108362197875977
            ],
            "type" : "VEC3"
        },
        {
            "bufferView" : 9,
            "componentType" : 5126,
            "count" : 466,
            "type" : "VEC3"
        },
        {
            "bufferView" : 10,
            "componentType" : 5126,
            "count" : 466,
            "type" : "VEC2"
        },
        {
            "bufferView" : 11,
            "componentType" : 5123,
            "count" : 744,
            "type" : "SCALAR"
        },
        {
            "bufferView" : 12,
            "componentType" : 5126,
            "count" : 40,
            "max" : [
                2.4490714073181152,
                8.106080055236816,
                9.982501029968262
            ],
            "min" : [
                -2.449071168899536,
                1.194930076599121,
                8.22894287109375
            ],
            "type" : "VEC3"
        },
        {
            "bufferView" : 13,
            "componentType" : 5126,
            "count" : 40,
            "type" : "VEC3"
        },
        {
            "bufferView" : 14,
            "componentType" : 5126,
            "count" : 40,
            "type" : "VEC2"
        },
        {
            "bufferView" : 15,
            "componentType" : 5123,
            "count" : 60,
            "type" : "SCALAR"
        },
        {
            "bufferView" : 16,
            "componentType" : 5126,
            "count" : 2199,
            "max" : [
                2.156008243560791,
                0,
                0.8010759353637695
            ],
            "min" : [
                -2.135284900665283,
                0,
                -0.5569620132446289
            ],
            "type" : "VEC3"
        },
        {
            "bufferView" : 17,
            "componentType" : 5126,
            "count" : 2199,
            "type" : "VEC3"
        },
        {
            "bufferView" : 18,
            "componentType" : 5126,
            "count" : 2199,
            "type" : "VEC2"
        },
        {
            "bufferView" : 19,
            "componentType" : 5123,
            "count" : 5001,
            "type" : "SCALAR"
        }
    ],
    "bufferViews" : [
        {
            "buffer" : 0,
            "byteLength" : 2184,
            "byteOffset" : 0
        },
        {
            "buffer" : 0,
            "byteLength" : 2184,
            "byteOffset" : 2184
        },
        {
            "buffer" : 0,
            "byteLength" : 1456,
            "byteOffset" : 4368
        },
        {
            "buffer" : 0,
            "byteLength" : 504,
            "byteOffset" : 5824
        },
        {
            "buffer" : 0,
            "byteLength" : 3192,
            "byteOffset" : 6328
        },
        {
            "buffer" : 0,
            "byteLength" : 3192,
            "byteOffset" : 9520
        },
        {
            "buffer" : 0,
            "byteLength" : 2128,
            "byteOffset" : 12712
        },
        {
            "buffer" : 0,
            "byteLength" : 888,
            "byteOffset" : 14840
        },
        {
            "buffer" : 0,
            "byteLength" : 5592,
            "byteOffset" : 15728
        },
        {
            "buffer" : 0,
            "byteLength" : 5592,
            "byteOffset" : 21320
        },
        {
            "buffer" : 0,
            "byteLength" : 3728,
            "byteOffset" : 26912
        },
        {
            "buffer" : 0,
            "byteLength" : 1488,
            "byteOffset" : 30640
        },
        {
            "buffer" : 0,
            "byteLength" : 480,
            "byteOffset" : 32128
        },
        {
            "buffer" : 0,
            "byteLength" : 480,
            "byteOffset" : 32608
        },
        {
            "buffer" : 0,
            "byteLength" : 320,
            "byteOffset" : 33088
        },
        {
            "buffer" : 0,
            "byteLength" : 120,
            "byteOffset" : 33408
        },
        {
            "buffer" : 0,
            "byteLength" : 26388,
            "byteOffset" : 33528
        },
        {
            "buffer" : 0,
            "byteLength" : 26388,
            "byteOffset" : 59916
        },
        {
            "buffer" : 0,
            "byteLength" : 17592,
            "byteOffset" : 86304
        },
        {
            "buffer" : 0,
            "byteLength" : 10002,
            "byteOffset" : 103896
        }
    ],
    "buffers" : [
        {
            "byteLength" : 113900,
            "uri" : "zeppelin.bin"
        }
    ]
}
