{
    "asset" : {
        "generator" : "Khronos glTF Blender I/O v3.2.40",
        "version" : "2.0"
    },
    "scene" : 0,
    "scenes" : [
        {
            "name" : "Scene",
            "nodes" : [
                0
            ]
        },
        {
            "name" : "Scene.001",
            "nodes" : [
                1
            ]
        }
    ],
    "nodes" : [
        {
            "mesh" : 0,
            "name" : "Balloon",
            "rotation" : [
                0.7071068286895752,
                0,
                0,
                0.7071068286895752
            ],
            "translation" : [
                0,
                0.17857462167739868,
                -0.005871616303920746
            ]
        },
        {
            "mesh" : 1,
            "name" : "Text",
            "translation" : [
                0,
                13.06796646118164,
                0
            ]
        }
    ],
    "materials" : [
        {
            "doubleSided" : true,
            "name" : "Baloon",
            "pbrMetallicRoughness" : {
                "baseColorFactor" : [
                    0.35346174240112305,
                    0.35346174240112305,
                    0.35346174240112305,
                    1
                ],
                "metallicFactor" : 0,
                "roughnessFactor" : 0.5
            }
        }
    ],
    "meshes" : [
        {
            "name" : "Sphere",
            "primitives" : [
                {
                    "attributes" : {
                        "POSITION" : 0,
                        "NORMAL" : 1,
                        "TEXCOORD_0" : 2
                    },
                    "indices" : 3,
                    "material" : 0
                }
            ]
        },
        {
            "name" : "Text",
            "primitives" : [
                {
                    "attributes" : {
                        "POSITION" : 4,
                        "NORMAL" : 5,
                        "TEXCOORD_0" : 6
                    },
                    "indices" : 7
                }
            ]
        }
    ],
    "accessors" : [
        {
            "bufferView" : 0,
            "componentType" : 5126,
            "count" : 182,
            "max" : [
                0.9504844546318054,
                1.6527284383773804,
                0.8783798217773438
            ],
            "min" : [
                -0.950484573841095,
                -1.7272251844406128,
                -0.9749280214309692
            ],
            "type" : "VEC3"
        },
        {
            "bufferView" : 1,
            "componentType" : 5126,
            "count" : 182,
            "type" : "VEC3"
        },
        {
            "bufferView" : 2,
            "componentType" : 5126,
            "count" : 182,
            "type" : "VEC2"
        },
        {
            "bufferView" : 3,
            "componentType" : 5123,
            "count" : 252,
            "type" : "SCALAR"
        },
        {
            "bufferView" : 4,
            "componentType" : 5126,
            "count" : 2214,
            "max" : [
                2.156008243560791,
                0,
                0.6410759687423706
            ],
            "min" : [
                -2.135284900665283,
                0,
                -0.5569620132446289
            ],
            "type" : "VEC3"
        },
        {
            "bufferView" : 5,
            "componentType" : 5126,
            "count" : 2214,
            "type" : "VEC3"
        },
        {
            "bufferView" : 6,
            "componentType" : 5126,
            "count" : 2214,
            "type" : "VEC2"
        },
        {
            "bufferView" : 7,
            "componentType" : 5123,
            "count" : 5001,
            "type" : "SCALAR"
        }
    ],
    "bufferViews" : [
        {
            "buffer" : 0,
            "byteLength" : 2184,
            "byteOffset" : 0
        },
        {
            "buffer" : 0,
            "byteLength" : 2184,
            "byteOffset" : 2184
        },
        {
            "buffer" : 0,
            "byteLength" : 1456,
            "byteOffset" : 4368
        },
        {
            "buffer" : 0,
            "byteLength" : 504,
            "byteOffset" : 5824
        },
        {
            "buffer" : 0,
            "byteLength" : 26568,
            "byteOffset" : 6328
        },
        {
            "buffer" : 0,
            "byteLength" : 26568,
            "byteOffset" : 32896
        },
        {
            "buffer" : 0,
            "byteLength" : 17712,
            "byteOffset" : 59464
        },
        {
            "buffer" : 0,
            "byteLength" : 10002,
            "byteOffset" : 77176
        }
    ],
    "buffers" : [
        {
            "byteLength" : 87180,
            "uri" : "data:application/octet-stream;base64,"
        }
    ]
}
